<?xml version="1.0" encoding="utf-8"?>
<!-- Generator: Adobe Illustrator 14.0.0, SVG Export Plug-In . SVG Version: 6.00 Build 43363)  -->
<!DOCTYPE svg PUBLIC "-//W3C//DTD SVG 1.1//EN" "http://www.w3.org/Graphics/SVG/1.1/DTD/svg11.dtd">
<svg version="1.1" id="Layer_1" xmlns="http://www.w3.org/2000/svg" xmlns:xlink="http://www.w3.org/1999/xlink" x="0px" y="0px"
	 width="2500px" height="2500px" viewBox="0 0 612 792" enable-background="new 0 0 612 792" xml:space="preserve">
<g>
	<polygon fill-rule="evenodd" clip-rule="evenodd" fill="#FFFFFF" points="209,300 401.756,300 401.756,492.756 209,492.756 
		209,300 	"/>
	<polygon fill-rule="evenodd" clip-rule="evenodd" fill="#ED1C24" points="217.504,355.999 393.252,355.999 393.252,436.758 
		217.504,436.758 217.504,355.999 	"/>
	<path fill-rule="evenodd" clip-rule="evenodd" d="M318.615,356.417c1.519,1.57,3.089,3.402,4.658,5.443
		c3.298,4.292,5.862,8.636,7.747,13.085c2.564,5.967,3.716,11.724,3.454,17.324c-0.366,6.909-2.826,13.346-7.484,19.261
		c14.864-12.928,12.823-31.299-6.071-55.114l-0.34-0.418h-2.382L318.615,356.417L318.615,356.417z M336.516,356.417
		c11.357,30.724,6.281,50.926-15.23,60.662c20.674-4.973,26.483-25.228,17.481-60.662l-0.084-0.418h-2.341L336.516,356.417
		L336.516,356.417z M274.74,355.999l-0.456,1.569l-1.361,2.198l3.612-0.576l0.648-3.192H274.74L274.74,355.999z M288.35,355.999
		c1.297,0.091,2.574,0.229,3.834,0.418c11.148,1.623,20.883,6.7,29.206,15.231c-3.192-5.443-11.306-10.521-24.443-15.231
		l-1.158-0.418H288.35L288.35,355.999z M296.109,368.245l-0.994-0.68l-2.722,0.262l-0.837,0.68
		c-9.107,0.89-17.063,3.297-23.919,7.171l-1.309,0.314l0.471-1.466l-2.198,0.314c-0.104,0-0.157-0.157-0.209-0.418
		c-0.052-0.366-0.157-0.523-0.366-0.523l-3.35,0.314c0.471-0.837,0.785-1.518,0.942-1.989c0.157-0.523,0.419-0.785,0.89-0.837
		c0.418-0.837,0.733-1.309,0.942-1.414c0.209-0.104,0.523-0.628,0.994-1.622l1.57-1.256l-1.989,0.157
		c-0.157-0.052-0.314-0.262-0.419-0.628l0.837-0.68l1.204-2.094c-1.623-0.209-4.03-0.052-7.275,0.523
		c-2.25,0.419-4.972,1.361-8.27,2.827c-2.931,1.308-4.868,2.407-5.757,3.245c0.994-0.262,1.884-0.366,2.669-0.262v1.937l1.728-0.471
		l-1.361,2.094c-0.942,1.099-1.413,1.727-1.413,1.989l0.367,1.727c-3.088,4.449-5.024,8.479-5.81,12.195l2.565-0.681l-0.733,2.303
		l-0.314,3.611l0.681-0.471l0.104,1.151l0.837,2.46c0.785-1.308,1.727-2.407,2.879-3.245l0.471,1.256
		c-3.088,3.559-5.6,7.066-7.537,10.468l-1.884,0.941l-1.466,1.832l-1.518,3.35l-1.518-3.82l-1.413-4.396l-0.785-1.151l-1.623-0.942
		c-0.576-5.705,0.576-10.625,3.35-14.655l0.209-1.937c-1.518,1.832-2.774,3.978-3.716,6.386c0.105-1.099,0.314-2.146,0.628-3.193
		l0.523-1.413c0.105-0.209,0.157-0.366,0.157-0.523c0.628-1.989,1.884-4.239,3.769-6.7l-0.366-0.732l-0.366-0.576l-0.733,0.419
		l0.052,0.157c-0.157,0-0.314,0.052-0.418,0.209l-1.937,2.617v-2.669l0.89-0.262l0.262-3.245l-1.047-1.256l5.234-5.339l1.413-1.832
		l0.89,1.832l3.716-4.763l0.733-0.785l1.832,0.785v2.617c2.774-1.728,7.746-3.612,14.917-5.548l-1.413-1.047l0.942-0.942
		l-1.204-0.628l-0.785-0.575l1.832-0.785l1.675-0.314l1.884-1.099l2.46-0.105c1.065-0.045,3.049-0.305,3.45-0.418h-50.6v80.759
		h13.629l0.022-0.157c0.157-4.553,1.727-8.584,4.711-11.985l1.308,1.988l0.89,1.832l2.198,2.932
		c-0.052-1.204,0.261-3.245,0.942-6.176l-0.209-1.519l-0.576-1.988h-0.732l-0.576-1.623l1.047-0.681l2.355-0.104
		c-1.309-1.57-2.094-2.617-2.355-3.14c-0.366-0.891-0.314-2.513,0.262-4.868c0.366-1.728,2.146-5.024,5.339-9.893l-0.471,3.245
		v1.309l-0.366,1.728l0.471,1.047l1.047,3.141c6.438-15.388,14.027-25.856,22.663-31.457l0.576-1.047l-0.314-0.157l-0.942,0.052
		l-0.314-0.785c2.879-2.722,6.751-4.972,11.724-6.7l3.297,0.157l1.832,0.785l0.942-0.785l-2.303-1.361
		c2.879-0.785,5.339-1.256,7.485-1.518l-0.314,0.995l0.785,0.732c0.786-0.261,1.414-0.418,1.78-0.418s0.68-0.104,0.995-0.367
		l0.628-1.151L296.109,368.245L296.109,368.245z M290.98,382.115l0.575-0.785l-1.099-0.471l-0.628-1.832
		c0.262-0.367,0.837-0.942,1.675-1.727c0.942-0.785,1.623-1.309,2.042-1.518c0.628-0.314,1.78,0.104,3.402,1.204l1.414-0.628
		l-1.414-0.733l-0.576-1.256c0.471-1.884,4.972-2.721,13.451-2.459c10.939,0.261,18.371,6.281,22.401,17.953
		c-0.575-4.973-2.983-9.526-7.17-13.608c-1.885-1.832-3.979-3.35-6.229-4.554c-2.303-1.256-4.606-2.094-6.856-2.565
		c-2.774-0.576-4.711-0.837-5.705-0.68l-1.832,0.314l-3.297,0.366l-6.647,1.989c-1.308,1.099-2.303,1.832-2.931,2.146
		c-0.366,0.157-0.89,0.523-1.465,1.099l-1.309,1.256c-0.523,0.367-1.204,0.524-2.041,0.419l-0.314,1.099
		c-0.104,1.047-0.523,1.779-1.204,2.198c-0.732,0.366-2.093,0.366-4.03,0l-1.256,0.89l3.088,0.942l-1.413,1.413
		c-0.89,0.209-1.675,0.314-2.303,0.314s-1.57-0.209-2.774-0.628l-0.942,1.518l3.559,0.785l-3.088,2.931l-4.449-0.157
		c0.576-1.727,1.623-3.716,3.088-5.862l-1.256-0.314l1.884-1.57l-2.355-0.262c-7.485,4.135-13.766,11.043-18.895,20.779
		c-1.832,3.454-3.35,7.066-4.658,10.887c-0.995,2.826-1.727,5.286-2.146,7.328l0.628,0.627c0.314-1.727,1.361-3.559,3.088-5.443
		c0,7.171,2.669,14.865,7.956,23.082l0.104,0.157h18.267l-0.104-0.157c-7.694-14.184-8.322-27.739-1.884-40.563l1.047-0.471
		c-6.856,15.231-5.915,28.892,2.826,41.034l0.112,0.157h16.322l-0.68-0.68c1.623,0.156,2.042,0,1.256-0.472
		c-0.837-0.471-1.832-1.466-2.983-2.931l0.418-0.472c1.937,1.519,4.501,2.983,7.589,4.396l0.335,0.157h4.083l-0.335-0.157
		c-1.78-0.785-3.925-1.884-6.385-3.35c-3.193-1.884-5.129-3.245-5.915-4.135c-0.785-0.942-1.832-2.564-3.14-4.92
		c-1.361-2.407-2.565-4.867-3.664-7.327s-1.989-5.496-2.564-9.107c-0.157-1.204-0.366-2.46-0.523-3.873l-0.262-2.513
		c-0.157-1.465,0.053-2.669,0.628-3.611l0.628-0.157c0.157,0,0.627,0.262,1.518,0.733l-0.052-1.518l0.052,1.518l-0.052-1.675v0.157
		v-0.157l-0.052-0.628h-1.728c-0.366-0.785-0.523-1.256-0.471-1.518c0.053-0.209,0.105-1.518,0.053-3.978l0.523-1.78l1.518,0.105
		c0.157,0.157,0.419,1.099,0.68,2.931c0.262-1.309,0.681-2.564,1.204-3.768c-0.523,1.204-0.942,2.459-1.204,3.768v0.053
		c0.262-0.837,0.733-2.198,1.466-4.083h-0.157l-0.104,0.262l0.104-0.262l-1.151-0.104l0.053-0.995l-0.837-0.995v-1.465
		c0.471-0.628,1.256-1.465,2.459-2.512c0.786-0.105,1.256-0.105,1.413,0c0.157,0.052,0.419,0.628,0.681,1.622L290.98,382.115
		l-0.942,1.204l0.052,0.105L290.98,382.115L290.98,382.115z M289.986,362.593l-3.402,2.355l4.188,2.303l-1.832,0.314l-3.873-1.675
		l2.46-3.14L289.986,362.593L289.986,362.593z M278.576,360.499l2.303,0.471l-1.623,2.198l1.413-0.314l2.303-1.989l-3.455-0.785
		L278.576,360.499L278.576,360.499z M275.697,361.336l1.885-0.262l-2.932,2.722l-0.837-0.105l1.414-1.465L275.697,361.336
		L275.697,361.336z M276.377,363.901l-3.507,2.565l-1.361,2.093l2.094,1.047l1.204,0.523c0.471,0.157,0.995,0.314,1.57,0.419
		l1.309-0.681l-1.78-0.628l0.157-0.681l-3.297-0.366l2.093-2.093l2.513-1.989L276.377,363.901L276.377,363.901z M277.11,366.466
		l4.083-3.297l2.094-0.314c-2.46,1.728-3.926,2.931-4.292,3.612l2.25,0.471l0.419,1.047l1.674,0.576l-2.093,0.209l-1.675-1.465
		l-2.565-0.157L277.11,366.466L277.11,366.466z M274.755,377.091l-2.669-0.104l0.942-0.942h2.774L274.755,377.091L274.755,377.091z
		 M277.634,376.41l2.198-0.366l-0.89,1.413h-2.094l-0.471-0.366L277.634,376.41L277.634,376.41z M288.939,374.578l-1.309-0.471
		l0.576-1.047l-2.303-0.471l0.785-0.471l3.297,0.366L288.939,374.578L288.939,374.578z M284.385,374.212l-1.256,3.141l-1.414,0.576
		l0.105-3.35L284.385,374.212L284.385,374.212z M277.634,379.08l-0.786-0.105l0.786-0.942l1.518,0.105l-2.094,3.14L277.634,379.08
		L277.634,379.08z M366.454,365.471c3.402,3.978,5.077,6.124,5.077,6.438c0,0.261,0.785,1.361,2.355,3.245l-0.157,12.98
		c-0.21,4.763-0.628,7.485-1.257,8.217c-0.628,0.732-1.256,2.617-1.832,5.705l3.089-1.204l1.832-3.245
		c3.297,0.419,5.233,0.314,5.705-0.313l3.454-3.873l2.774-4.659l-0.314,4.345l-4.345,8.217l-2.303-0.157l-1.36,4.03l-1.309,2.146
		c-4.554,6.229-7.537,10.102-8.95,11.619c-1.832,1.938-3.559,3.612-5.286,4.973c-0.995,0.785-2.303,2.251-3.821,4.292
		c-0.732,0.994-3.192,2.408-7.38,4.239c-4.082,1.78-7.955,3.141-11.672,4.135l-0.625,0.157h7.744l0.209-0.157
		c1.937-1.36,3.559-2.303,4.867-2.773c1.361-0.523,3.245-0.785,5.601-0.785c-0.89,1.622-1.832,2.773-2.826,3.559l-0.209,0.157
		h37.736v-80.759h-36.423l2.35,3.035l-0.628,3.141c1.937,3.507,2.983,5.862,3.088,7.118h0.681
		c-2.303,11.201-6.071,21.302-11.306,30.305c-5.652,9.735-12.195,16.696-19.627,20.831c-12.51,6.962-22.716,7.642-30.724,1.937
		c8.846,6.595,19.522,6.177,32.032-1.256c9.525-5.652,17.271-13.922,23.238-24.757c4.449-8.112,7.746-17.272,9.893-27.531
		l0.313-0.157l-0.052-1.256L366.454,365.471L366.454,365.471z M366.769,406.715l-0.472,1.57l-0.941,1.832h1.884l0.732-1.989
		L366.769,406.715L366.769,406.715z M286.165,410.326l-0.157,1.623c0.104,5.182,3.35,9.892,9.735,14.132l-0.628-1.414
		c-2.879-1.727-4.449-4.919-4.763-9.525l-1.151-1.623l-1.256-0.628l-1.099-2.407L286.165,410.326L286.165,410.326z M305.321,431.524
		c1.204,0.262,0.681-0.367-1.57-1.885l-0.157-1.413h-2.46l1.413,1.413c-1.204,0.21-2.355,0.104-3.455-0.262
		C302.024,430.478,304.118,431.21,305.321,431.524L305.321,431.524z M268.893,358.039l-0.524,1.78l1.571-0.576l0.471-1.413
		l1.108-1.831h-1.792L268.893,358.039L268.893,358.039z M240.734,370.182l0.157,1.414c-0.262,0.68-0.523,1.099-0.733,1.256
		c-0.209,0.157-0.89,0.209-1.989,0.209l0.209-0.995l0.994-1.465L240.734,370.182L240.734,370.182z M230.266,385.779l-0.209,0.576
		v0.052l0.314-0.837L230.266,385.779L230.266,385.779z M270.567,362.122c-0.052,0.157-0.314,0.681-0.732,1.57l-1.256,1.256
		l0.837,0.209l1.623-1.361l0.786-1.57L270.567,362.122L270.567,362.122z M271.981,365.523l-2.46,1.989l-1.57,2.669l2.355,0.471
		l0.732,1.047l1.518,0.104l-1.204,1.361h-1.047l0.366-0.995l-1.675-0.104l-0.785-0.68l-2.564-0.367
		c0.366-0.68,1.099-1.727,2.198-3.036l1.204-1.309l2.564-1.727L271.981,365.523L271.981,365.523z M250.417,431.524
		c0.576,0.209,1.151,0.471,1.675,0.732c0.523,0.313,1.256,1.203,2.146,2.669l1.157,1.832h-6.046l-6.102-0.157
		c0.104-3.192,0.942-7.065,2.512-11.619l2.46,1.1L250.417,431.524L250.417,431.524z"/>
	<path fill-rule="evenodd" clip-rule="evenodd" fill="#FFFFFF" d="M308.051,374.759c12.203,0,22.156,9.953,22.156,22.156
		s-9.953,22.155-22.156,22.155c-12.202,0-22.155-9.952-22.155-22.155S295.849,374.759,308.051,374.759L308.051,374.759z"/>
	<path fill-rule="evenodd" clip-rule="evenodd" d="M310.12,393.461c0.016-0.267,0.079-0.535,0.142-0.787
		c0.048-0.236,0.126-0.472,0.173-0.723c0.048-0.158,0.127-0.268,0.252-0.346c0.189-0.11,0.456-0.11,0.646-0.22
		c0.173-0.079,0.314-0.205,0.393-0.378c0.157-0.345,0.063-0.77,0.016-1.116c-0.031-0.204-0.078-0.424-0.078-0.629
		c0-0.236-0.157-0.55-0.221-0.787c-0.063-0.299-0.109-0.582-0.142-0.88c-0.078-0.582-0.141-1.164-0.157-1.747
		c-0.016-0.204,0-0.44-0.094-0.628c-0.221-0.394-0.787-0.551-1.18-0.692c-0.252-0.079-0.488-0.173-0.724-0.283
		c-0.157-0.095-0.551-0.284-0.614-0.472c-0.125-0.331-0.047-0.756-0.519-0.567c-0.016,0,0.017-0.189,0.017-0.205
		c0.031-0.078,0.063-0.157,0.109-0.22c0.095-0.142,0.205-0.268,0.299-0.425c0.079-0.111,0.031-0.283,0.063-0.425l0.095-0.346
		c0.457-0.377,0.425-1.006,0.361-1.084c-0.015-0.048-0.078-0.063-0.094-0.079c-0.032-0.031-0.032-0.158,0-0.236
		c0.126-0.237,0.063-0.661,0.031-0.818c-0.016-0.11-0.079-0.22-0.126-0.331c-0.126-0.298-0.236-0.597-0.598-0.708
		c-0.472-0.125-1.667-0.078-2.217,0.567c-0.456,0.486-0.251,1.761-0.346,1.777c-0.016-0.017-0.094,0.031-0.11,0.125
		c-0.032,0.236-0.016,0.786,0.314,1.022c0.063,0.032,0.032,0.299,0.032,0.409c-0.016,0.205,0.173,0.52,0.157,0.629
		c0,0.157-0.047,0.236,0.079,0.314c0.095,0.063,0.646,0.268,0.613,0.503c-0.031,0.141,0.048,0.361,0.095,0.487
		c0.031,0.142,0.078,0.314,0.173,0.425c0.143,0.189,0.551-0.314,0.661-0.393c0.361-0.205,0.55,0.377,0.864,0.503
		c0.346,1.431,0.189,4.089,0.095,4.671c-0.11,0.566-0.157,0.157-0.157,0.157c-0.063-1.274-2.17-5.993-2.564-6.072
		c-0.314-0.141-0.472,0.315-0.771,0.315c-0.078-0.142-0.031-0.3,0.08-0.394c0.204-0.141,0.141-0.236,0.046-0.314
		c-0.095-0.063-0.142-0.22-0.095-0.362c0.032-0.142,0-0.331-0.125-0.457c-0.08-0.078-0.426-0.172-0.331-0.314
		c0.032-0.047,0.205-0.032,0.251-0.063c0.158-0.095,0.095-0.22-0.063-0.251c-0.126-0.015-0.189-0.11-0.221-0.252
		c-0.016-0.141,0.032-0.267,0.032-0.394c0-0.063,0-0.125-0.015-0.188c-0.032-0.063-0.095-0.094-0.111-0.142
		c-0.015,0-0.015-0.016-0.015-0.157c0-0.032,0.063,0.016,0.063-0.032c0,0,0.142-2.249,0.142-2.265
		c-0.016-0.048-0.362-0.063-0.377-0.032l-0.126,2.281c0,0.031,0.079,0,0.079,0.048c0,0.031-0.016,0.141-0.016,0.188
		c-0.331,0.235-0.111,0.912-0.582,1.054c-0.315,0.094-0.047,0.534-0.157,0.708c-0.079,0.126-0.205,0.189-0.268,0.331
		c-0.047,0.125-0.047,0.283-0.047,0.425c0.015,0.282,0.157,0.44,0.157,0.849c0,0.331,0.299,0.551,0.614,0.614
		c0.393,0.157,0.692-0.173,0.928,0c0,0.251-0.016,0.487-0.126,0.692c-0.236,0.44-0.865,0.566-1.258,0.172
		c-0.536-0.204-0.237-0.519-0.299-0.771c0,0.016-0.614,0.221-0.676,0.252c-0.173,0.125-0.142,0.283-0.142,0.456
		c0,1.336-0.173,2.674-0.33,3.995c-0.032,0.22-0.063,0.44-0.079,0.66c-0.016,0.173-0.079,0.378-0.016,0.551
		c0.189,0.535,0.724,0.991,1.196,1.274c0.299,0.189,0.613-0.172,0.896-0.047c0.267,0.11,0.22,0.613,0.236,0.849
		c0.031,0.393,0,0.802-0.079,1.195c-0.126,0.771-0.378,1.542-0.503,2.328c-0.032,0.22-0.063,0.44-0.063,0.676
		c0,0.11-0.063,0.677,0.016,0.739c0.063,0.11,0.22,0.11,0.204,0.409c-0.141,1.746-0.22,3.492-0.283,5.237
		c-0.078,1.73-0.157,3.477-0.299,5.223c-0.078,0.896-0.251,1.793-0.283,2.705c-0.032,0.771-0.314,1.573-0.11,2.344
		c0.095,0.314-0.047,0.754,0.157,1.022c-0.016,0.314-0.204,0.455-0.251,0.565c-0.126,0.472,0.22,0.913,0.456,1.069
		c0.488,0.378,0.724,0.299,1.022,0.221c0.425-0.126,0.598-0.504,0.865-0.834c0.143-0.282-0.126-0.581-0.095-0.928
		c0.598-0.11,0.535-4.294,0.866-5.584c0.079-0.487,0.361-2.249,0.503-3.916c0.047-0.331,0.016-0.535,0.078-0.865
		c0.268-1.132,0.583-2.705,0.771-4.104h0.047c0.157,1.116,0.173,2.374,0.425,3.334c0.346,1.463,0.361,1.809,0.095,2.736
		c-0.236,1.274-0.236,2.958-0.188,4.247c0.046,1.289,0.03,2.689,0.282,3.948c0.016,0.063,0.047,0.078,0.095,0.063
		c0.047,0,0.094,0.345,0.094,0.487c0,0.031,0.016,0.094,0.016,0.125c0.048,0.362,0.834,0.472,0.944,0.488
		c0.361,0.047,0.771-0.268,1.259,0.188c0,0,0.062,0.016,0.077,0.016c0.834,0.126,1.841,0.173,2.533-0.283
		c0.125-0.078,0.094-0.299-0.142-0.361c-0.613-0.142-1.069-0.52-1.589-0.818c-0.188-0.11-0.425-0.361-0.377-0.472
		c0.016-0.063,0.094-0.078,0.016-0.299c-0.598-2.045-0.488-4.781-0.236-6.937c0.017-0.235,0.205-0.535,0.236-0.817
		c0.235-3.067-0.378-5.993-0.378-8.966c0.095-0.063,0.125-0.251,0.063-0.394c-0.109-0.456-0.173-0.896-0.267-1.352
		c-0.063-0.315-0.11-0.802-0.174-1.069C310.104,394.012,310.104,393.571,310.12,393.461L310.12,393.461z M304.427,381.821
		l-0.047,0.063c-0.078-0.094-0.078-0.236,0-0.314C304.458,381.617,304.442,381.743,304.427,381.821L304.427,381.821z
		 M306.016,391.211c-0.063,0.268-0.409,0.126-0.614,0.158c-0.094-0.032-0.047-0.142-0.063-0.205c0.377-0.409,0.142-0.99,0.063-1.447
		h0.614C306.157,390.158,306.282,390.802,306.016,391.211L306.016,391.211z M309.303,386.76c-0.031-0.015,0-0.33,0.031-0.33
		c0.079,0,1.133,0.032,0.943,0.582C309.979,386.965,309.539,386.886,309.303,386.76L309.303,386.76z M304.033,384.968
		c0-0.063-0.047-0.126-0.125-0.142c-0.079,0-0.141,0.047-0.141,0.11c-0.016,0.079,0.047,0.142,0.109,0.142
		C303.955,385.093,304.018,385.03,304.033,384.968L304.033,384.968z M305.764,391.164c0.047-0.078,0.031-0.173-0.031-0.188
		c-0.063-0.031-0.142,0-0.173,0.079c-0.047,0.094-0.032,0.173,0.031,0.204C305.638,391.29,305.716,391.243,305.764,391.164
		L305.764,391.164z"/>
</g>
</svg>
